Results
version=1
nRows=4
nColumns=143
inDegrees=yes
endheader
time	/jointset/groundthorax/r_z/value	/jointset/groundthorax/r_z/speed	/jointset/sternoclavicular/sternoclavicular_r2/value	/jointset/sternoclavicular/sternoclavicular_r2/speed	/jointset/sternoclavicular/sternoclavicular_r3/value	/jointset/sternoclavicular/sternoclavicular_r3/speed	/jointset/unrotscap/unrotscap_r3/value	/jointset/unrotscap/unrotscap_r3/speed	/jointset/unrotscap/unrotscap_r2/value	/jointset/unrotscap/unrotscap_r2/speed	/jointset/acromioclavicular/acromioclavicular_r2/value	/jointset/acromioclavicular/acromioclavicular_r2/speed	/jointset/acromioclavicular/acromioclavicular_r3/value	/jointset/acromioclavicular/acromioclavicular_r3/speed	/jointset/acromioclavicular/acromioclavicular_r1/value	/jointset/acromioclavicular/acromioclavicular_r1/speed	/jointset/unrothum/unrothum_r1/value	/jointset/unrothum/unrothum_r1/speed	/jointset/unrothum/unrothum_r3/value	/jointset/unrothum/unrothum_r3/speed	/jointset/unrothum/unrothum_r2/value	/jointset/unrothum/unrothum_r2/speed	/jointset/shoulder0/elv_angle/value	/jointset/shoulder0/elv_angle/speed	/jointset/shoulder1/shoulder_elv/value	/jointset/shoulder1/shoulder_elv/speed	/jointset/shoulder1/shoulder1_r2/value	/jointset/shoulder1/shoulder1_r2/speed	/jointset/shoulder2/shoulder_rot/value	/jointset/shoulder2/shoulder_rot/speed	/jointset/elbow/elbow_flexion/value	/jointset/elbow/elbow_flexion/speed	/jointset/radioulnar/pro_sup/value	/jointset/radioulnar/pro_sup/speed	/jointset/radiocarpal/deviation/value	/jointset/radiocarpal/deviation/speed	/jointset/radiocarpal/flexion/value	/jointset/radiocarpal/flexion/speed	/jointset/wrist_hand/wrist_hand_r1/value	/jointset/wrist_hand/wrist_hand_r1/speed	/jointset/wrist_hand/wrist_hand_r3/value	/jointset/wrist_hand/wrist_hand_r3/speed	/forceset/DELT1/activation	/forceset/DELT1/fiber_length	/forceset/DELT2/activation	/forceset/DELT2/fiber_length	/forceset/DELT3/activation	/forceset/DELT3/fiber_length	/forceset/SUPSP/activation	/forceset/SUPSP/fiber_length	/forceset/INFSP/activation	/forceset/INFSP/fiber_length	/forceset/SUBSC/activation	/forceset/SUBSC/fiber_length	/forceset/TMIN/activation	/forceset/TMIN/fiber_length	/forceset/TMAJ/activation	/forceset/TMAJ/fiber_length	/forceset/PECM1/activation	/forceset/PECM1/fiber_length	/forceset/PECM2/activation	/forceset/PECM2/fiber_length	/forceset/PECM3/activation	/forceset/PECM3/fiber_length	/forceset/LAT1/activation	/forceset/LAT1/fiber_length	/forceset/LAT2/activation	/forceset/LAT2/fiber_length	/forceset/LAT3/activation	/forceset/LAT3/fiber_length	/forceset/CORB/activation	/forceset/CORB/fiber_length	/forceset/TRIlong/activation	/forceset/TRIlong/fiber_length	/forceset/TRIlat/activation	/forceset/TRIlat/fiber_length	/forceset/TRImed/activation	/forceset/TRImed/fiber_length	/forceset/ANC/activation	/forceset/ANC/fiber_length	/forceset/SUP/activation	/forceset/SUP/fiber_length	/forceset/BIClong/activation	/forceset/BIClong/fiber_length	/forceset/BICshort/activation	/forceset/BICshort/fiber_length	/forceset/BRA/activation	/forceset/BRA/fiber_length	/forceset/BRD/activation	/forceset/BRD/fiber_length	/forceset/ECRL/activation	/forceset/ECRL/fiber_length	/forceset/ECRB/activation	/forceset/ECRB/fiber_length	/forceset/ECU/activation	/forceset/ECU/fiber_length	/forceset/FCR/activation	/forceset/FCR/fiber_length	/forceset/FCU/activation	/forceset/FCU/fiber_length	/forceset/PL/activation	/forceset/PL/fiber_length	/forceset/PT/activation	/forceset/PT/fiber_length	/forceset/PQ/activation	/forceset/PQ/fiber_length	/forceset/FDSL/activation	/forceset/FDSL/fiber_length	/forceset/FDSR/activation	/forceset/FDSR/fiber_length	/forceset/FDSM/activation	/forceset/FDSM/fiber_length	/forceset/FDSI/activation	/forceset/FDSI/fiber_length	/forceset/FDPL/activation	/forceset/FDPL/fiber_length	/forceset/FDPR/activation	/forceset/FDPR/fiber_length	/forceset/FDPM/activation	/forceset/FDPM/fiber_length	/forceset/FDPI/activation	/forceset/FDPI/fiber_length	/forceset/EDCL/activation	/forceset/EDCL/fiber_length	/forceset/EDCR/activation	/forceset/EDCR/fiber_length	/forceset/EDCM/activation	/forceset/EDCM/fiber_length	/forceset/EDCI/activation	/forceset/EDCI/fiber_length	/forceset/EDM/activation	/forceset/EDM/fiber_length	/forceset/EIP/activation	/forceset/EIP/fiber_length	/forceset/EPL/activation	/forceset/EPL/fiber_length	/forceset/EPB/activation	/forceset/EPB/fiber_length	/forceset/FPL/activation	/forceset/FPL/fiber_length	/forceset/APL/activation	/forceset/APL/fiber_length
      1.18753966	     10.00000028	     -0.00000000	     -2.22188664	      0.72149028	      0.94108631	     -0.30558923	     -0.94108631	      0.30558923	      2.22188664	     -0.72149028	     -0.44988685	      0.14608711	      3.63582726	     -1.18062460	      1.63427933	     -0.53068263	     -1.63427933	      0.53068263	     -3.63582726	      1.18062460	      0.44988685	     -0.14608711	    -59.48601990	     17.87216670	      9.18132919	     -2.98135812	     59.48601990	    -17.87216670	      4.35513374	    -15.39036545	     10.35698209	     -3.26840837	    -31.48974597	      3.10382191	      0.24635342	     -3.38891919	     -0.17780314	      2.11593248	     16.30985195	   -185.21116922	     -5.09368481	     60.61700044	      0.00000000	      0.12486205	      0.00000000	      0.12303664	      0.00000000	      0.11557728	      0.00000000	      0.07488806	      0.00000000	      0.08141557	      0.00000000	      0.08092594	      0.00000000	      0.06186558	      0.00000000	      0.11640111	      0.00000000	      0.12793410	      0.00000000	      0.10393530	      0.00000000	      0.07954606	      0.00000000	      0.16485298	      0.00000000	      0.12808657	      0.00000000	      0.19188993	      0.00000000	      0.07034500	      0.00000000	      0.13735657	      0.00000000	      0.07612050	      0.00000000	      0.07110206	      0.00000000	      0.00582015	      0.00000000	      0.03024530	      0.00000000	      0.15786882	      0.00000000	      0.15823954	      0.00000000	      0.09080091	      0.00000000	      0.19676246	      0.00000000	      0.09298544	      0.00000000	      0.06398611	      0.00000000	      0.06055071	      0.00000000	      0.07598609	      0.00000000	      0.04837817	      0.00000000	      0.07863820	      0.00000000	      0.06414283	      0.00000000	      0.03028055	      0.00000000	      0.05577384	      0.00000000	      0.07805153	      0.00000000	      0.08033736	      0.00000000	      0.09337958	      0.00000000	      0.07839565	      0.00000000	      0.08283561	      0.00000000	      0.08004983	      0.00000000	      0.08142852	      0.00000000	      0.07431720	      0.00000000	      0.06119542	      0.00000000	      0.35049026	      0.00000000	      0.06859731	      0.00000000	      0.07180571	      0.00000000	      0.06583723	      0.00000000	      0.06427401	      0.00000000	      0.07883489	      0.00000000	      0.06906733	      0.00000000	      0.08359296
      1.18898648	     10.00000028	     -0.00000000	     -2.22083916	      0.72640573	      0.94064265	     -0.30767118	     -0.94064265	      0.30767118	      2.22083916	     -0.72640573	     -0.44967475	      0.14708238	      3.63411319	     -1.18866809	      1.63350887	     -0.53429812	     -1.63350887	      0.53429812	     -3.63411319	      1.18866809	      0.44967475	     -0.14708238	    -59.46016906	     17.86252849	      9.17700076	     -3.00166983	     59.46016906	    -17.86252849	      4.33259042	    -15.76961010	     10.35211367	     -3.45830049	    -31.48520502	      3.17282597	      0.24144826	     -3.39125267	     -0.17470564	      2.16560737	     16.04064697	   -186.89892659	     -5.00494784	     62.04008120	      0.00000000	      0.12486205	      0.00000000	      0.12303664	      0.00000000	      0.11557728	      0.00000000	      0.07488806	      0.00000000	      0.08141557	      0.00000000	      0.08092594	      0.00000000	      0.06186558	      0.00000000	      0.11640111	      0.00000000	      0.12793410	      0.00000000	      0.10393530	      0.00000000	      0.07954606	      0.00000000	      0.16485298	      0.00000000	      0.12808657	      0.00000000	      0.19188993	      0.00000000	      0.07034500	      0.00000000	      0.13735657	      0.00000000	      0.07612050	      0.00000000	      0.07110206	      0.00000000	      0.00582015	      0.00000000	      0.03024530	      0.00000000	      0.15786882	      0.00000000	      0.15823954	      0.00000000	      0.09080091	      0.00000000	      0.19676246	      0.00000000	      0.09298544	      0.00000000	      0.06398611	      0.00000000	      0.06055071	      0.00000000	      0.07598609	      0.00000000	      0.04837817	      0.00000000	      0.07863820	      0.00000000	      0.06414283	      0.00000000	      0.03028055	      0.00000000	      0.05577384	      0.00000000	      0.07805153	      0.00000000	      0.08033736	      0.00000000	      0.09337958	      0.00000000	      0.07839565	      0.00000000	      0.08283561	      0.00000000	      0.08004983	      0.00000000	      0.08142852	      0.00000000	      0.07431720	      0.00000000	      0.06119542	      0.00000000	      0.35049026	      0.00000000	      0.06859731	      0.00000000	      0.07180571	      0.00000000	      0.06583723	      0.00000000	      0.06427401	      0.00000000	      0.07883489	      0.00000000	      0.06906733	      0.00000000	      0.08359296
      1.19010109	     10.00000028	     -0.00000000	     -2.22002755	      0.72985565	      0.94029889	     -0.30913241	     -0.94029889	      0.30913241	      2.22002755	     -0.72985565	     -0.44951042	      0.14778092	      3.63278510	     -1.19431344	      1.63291190	     -0.53683567	     -1.63291190	      0.53683567	     -3.63278510	      1.19431344	      0.44951042	     -0.14778092	    -59.44026343	     17.85502916	      9.17364700	     -3.01592568	     59.44026343	    -17.85502916	      4.31485572	    -16.05097701	     10.34818359	     -3.59172463	    -31.48163994	      3.22383569	      0.23766818	     -3.39125770	     -0.17227104	      2.20273266	     15.83164871	   -188.10157055	     -4.93520171	     63.10364255	      0.00000000	      0.12486205	      0.00000000	      0.12303664	      0.00000000	      0.11557728	      0.00000000	      0.07488806	      0.00000000	      0.08141557	      0.00000000	      0.08092594	      0.00000000	      0.06186558	      0.00000000	      0.11640111	      0.00000000	      0.12793410	      0.00000000	      0.10393530	      0.00000000	      0.07954606	      0.00000000	      0.16485298	      0.00000000	      0.12808657	      0.00000000	      0.19188993	      0.00000000	      0.07034500	      0.00000000	      0.13735657	      0.00000000	      0.07612050	      0.00000000	      0.07110206	      0.00000000	      0.00582015	      0.00000000	      0.03024530	      0.00000000	      0.15786882	      0.00000000	      0.15823954	      0.00000000	      0.09080091	      0.00000000	      0.19676246	      0.00000000	      0.09298544	      0.00000000	      0.06398611	      0.00000000	      0.06055071	      0.00000000	      0.07598609	      0.00000000	      0.04837817	      0.00000000	      0.07863820	      0.00000000	      0.06414283	      0.00000000	      0.03028055	      0.00000000	      0.05577384	      0.00000000	      0.07805153	      0.00000000	      0.08033736	      0.00000000	      0.09337958	      0.00000000	      0.07839565	      0.00000000	      0.08283561	      0.00000000	      0.08004983	      0.00000000	      0.08142852	      0.00000000	      0.07431720	      0.00000000	      0.06119542	      0.00000000	      0.35049026	      0.00000000	      0.06859731	      0.00000000	      0.07180571	      0.00000000	      0.06583723	      0.00000000	      0.06427401	      0.00000000	      0.07883489	      0.00000000	      0.06906733	      0.00000000	      0.08359296
      1.19096981	     10.00000028	     -0.00000000	     -2.21939242	      0.73234098	      0.94002988	     -0.31018507	     -0.94002988	      0.31018507	      2.21939242	     -0.73234098	     -0.44938182	      0.14828415	      3.63174578	     -1.19838035	      1.63244474	     -0.53866372	     -1.63244474	      0.53866372	     -3.63174578	      1.19838035	      0.44938182	     -0.14828415	    -59.42475493	     17.84913929	      9.17102249	     -3.02619562	     59.42475493	    -17.84913929	      4.30081908	    -16.26367793	     10.34502115	     -3.68779298	    -31.47882256	      3.26222448	      0.23472252	     -3.39017181	     -0.17034518	      2.23094557	     15.66785621	   -188.97799285	     -4.88002980	     63.91188268	      0.00000000	      0.12486205	      0.00000000	      0.12303664	      0.00000000	      0.11557728	      0.00000000	      0.07488806	      0.00000000	      0.08141557	      0.00000000	      0.08092594	      0.00000000	      0.06186558	      0.00000000	      0.11640111	      0.00000000	      0.12793410	      0.00000000	      0.10393530	      0.00000000	      0.07954606	      0.00000000	      0.16485298	      0.00000000	      0.12808657	      0.00000000	      0.19188993	      0.00000000	      0.07034500	      0.00000000	      0.13735657	      0.00000000	      0.07612050	      0.00000000	      0.07110206	      0.00000000	      0.00582015	      0.00000000	      0.03024530	      0.00000000	      0.15786882	      0.00000000	      0.15823954	      0.00000000	      0.09080091	      0.00000000	      0.19676246	      0.00000000	      0.09298544	      0.00000000	      0.06398611	      0.00000000	      0.06055071	      0.00000000	      0.07598609	      0.00000000	      0.04837817	      0.00000000	      0.07863820	      0.00000000	      0.06414283	      0.00000000	      0.03028055	      0.00000000	      0.05577384	      0.00000000	      0.07805153	      0.00000000	      0.08033736	      0.00000000	      0.09337958	      0.00000000	      0.07839565	      0.00000000	      0.08283561	      0.00000000	      0.08004983	      0.00000000	      0.08142852	      0.00000000	      0.07431720	      0.00000000	      0.06119542	      0.00000000	      0.35049026	      0.00000000	      0.06859731	      0.00000000	      0.07180571	      0.00000000	      0.06583723	      0.00000000	      0.06427401	      0.00000000	      0.07883489	      0.00000000	      0.06906733	      0.00000000	      0.08359296
